<svg id="visual" viewBox="0 0 675 900" width="675" height="900" xmlns="http://www.w3.org/2000/svg" xmlns:xlink="http://www.w3.org/1999/xlink" version="1.1"><rect x="0" y="0" width="675" height="900" fill="#001e1d"></rect><defs><linearGradient id="grad1_0" x1="0%" y1="0%" x2="100%" y2="100%"><stop offset="30%" stop-color="#001e1d" stop-opacity="1"></stop><stop offset="70%" stop-color="#001e1d" stop-opacity="1"></stop></linearGradient></defs><defs><linearGradient id="grad2_0" x1="0%" y1="0%" x2="100%" y2="100%"><stop offset="30%" stop-color="#001e1d" stop-opacity="1"></stop><stop offset="70%" stop-color="#001e1d" stop-opacity="1"></stop></linearGradient></defs><g transform="translate(675, 0)"><path d="M0 168.8C-20.9 159.5 -41.7 150.3 -57.4 138.6C-73.1 126.8 -83.5 112.6 -101.1 101.1C-118.7 89.6 -143.4 81 -155.9 64.6C-168.4 48.2 -168.6 24.1 -168.7 0L0 0Z" fill="#f9bc60"></path></g><g transform="translate(0, 900)"><path d="M0 -168.7C12.2 -145 24.5 -121.3 48.6 -117.3C72.7 -113.4 108.7 -129.3 119.3 -119.3C129.9 -109.4 115.2 -73.6 119.2 -49.4C123.2 -25.2 146 -12.6 168.8 0L0 0Z" fill="#f9bc60"></path></g></svg>