<svg id="visual" viewBox="0 0 960 540" width="960" height="540" xmlns="http://www.w3.org/2000/svg" xmlns:xlink="http://www.w3.org/1999/xlink" version="1.1"><rect x="0" y="0" width="960" height="540" fill="#001e1d"></rect><defs><linearGradient id="grad1_0" x1="43.8%" y1="0%" x2="100%" y2="100%"><stop offset="14.444444444444446%" stop-color="#001e1d" stop-opacity="1"></stop><stop offset="85.55555555555554%" stop-color="#001e1d" stop-opacity="1"></stop></linearGradient></defs><defs><linearGradient id="grad2_0" x1="0%" y1="0%" x2="56.3%" y2="100%"><stop offset="14.444444444444446%" stop-color="#001e1d" stop-opacity="1"></stop><stop offset="85.55555555555554%" stop-color="#001e1d" stop-opacity="1"></stop></linearGradient></defs><g transform="translate(960, 0)"><path d="M0 162C-23.2 161.6 -46.3 161.2 -62 149.7C-77.7 138.1 -85.9 115.4 -99.7 99.7C-113.5 84 -132.8 75.2 -144.1 59.7C-155.4 44.2 -158.7 22.1 -162 0L0 0Z" fill="#f9bc60"></path></g><g transform="translate(0, 540)"><path d="M0 -162C23.5 -162.4 46.9 -162.9 62 -149.7C77 -136.4 83.7 -109.5 91.2 -91.2C98.8 -72.9 107.2 -63.1 119.2 -49.4C131.1 -35.6 146.6 -17.8 162 0L0 0Z" fill="#f9bc60"></path></g></svg>